
		<svg xmlns="http://www.w3.org/2000/svg" xmlns:xlink="http://www.w3.org/1999/xlink" version="1.1" width="3185.7585139318885" height="808.0495356037152">
			
			<g transform="scale(9.287925696594428) translate(10, 10)">
				<defs id="SvgjsDefs6384"/><g id="main_text" rel="mainfill" name="main_text" feature="main_text" xmlns:name="mainText_mainfill" groupName="main_text" fill="#823331" transform="translate(73.40556699452753, 9.462867813762294) scale(1.3509841106669593)"><path d="M0.44 22.8 q0.06 -0.56 0.37 -1.13 t0.71 -0.91 q2.06 1.32 4.04 1.32 q0.96 0 1.52 -0.45 t0.56 -1.13 q-0.04 -1.16 -1.54 -1.82 l-2.36 -1 q-1.4 -0.58 -2.1 -1.49 t-0.7 -2.09 q0 -0.9 0.35 -1.64 t1 -1.27 t1.54 -0.83 t1.97 -0.3 q2.2 0 4.32 1.1 q-0.06 1.22 -0.94 2.04 q-2.02 -0.96 -3.52 -0.96 q-0.96 0 -1.47 0.44 t-0.51 1.08 q0 0.92 1.42 1.52 l2.36 1 q1.44 0.6 2.22 1.58 t0.78 2.26 q0 0.9 -0.32 1.67 t-0.97 1.32 t-1.62 0.86 t-2.29 0.31 q-2.56 0 -4.82 -1.48 z M20 26.06 l-2.2 -1.78 q-1.46 0 -2.54 -0.49 t-1.81 -1.4 t-1.11 -2.23 t-0.38 -3 t0.38 -2.99 t1.11 -2.23 t1.8 -1.4 t2.45 -0.48 q1.4 0 2.48 0.48 t1.82 1.39 t1.11 2.23 t0.37 3.02 q0 2.4 -0.77 4.04 t-2.13 2.22 l0.48 0.34 q1.44 1.04 2.52 1.02 q0 0.9 -0.52 1.42 t-1.34 0.52 q-0.4 0 -0.85 -0.16 t-0.87 -0.52 z M17.72 12.16 q-2.98 0 -2.98 5 t2.98 5 t2.98 -5 t-2.98 -5 z M30.52 21.72 l3.72 0 q0 0.6 -0.08 1.02 q-0.22 1.3 -1.74 1.3 l-4.86 0 q-0.72 0 -1.14 -0.43 t-0.42 -1.17 l0 -12.08 l0.14 -0.14 l1 0 q0.8 0 1.18 0.41 t0.38 1.31 l0 9.86 q0.86 -0.08 1.82 -0.08 z  M39.54 22.8 q0.06 -0.56 0.37 -1.13 t0.71 -0.91 q2.06 1.32 4.04 1.32 q0.96 0 1.52 -0.45 t0.56 -1.13 q-0.04 -1.16 -1.54 -1.82 l-2.36 -1 q-1.4 -0.58 -2.1 -1.49 t-0.7 -2.09 q0 -0.9 0.35 -1.64 t1 -1.27 t1.54 -0.83 t1.97 -0.3 q2.2 0 4.32 1.1 q-0.06 1.22 -0.94 2.04 q-2.02 -0.96 -3.52 -0.96 q-0.96 0 -1.47 0.44 t-0.51 1.08 q0 0.92 1.42 1.52 l2.36 1 q1.44 0.6 2.22 1.58 t0.78 2.26 q0 0.9 -0.32 1.67 t-0.97 1.32 t-1.62 0.86 t-2.29 0.31 q-2.56 0 -4.82 -1.48 z M56.7 18.2 q0 -1.2 -0.29 -1.82 t-1.17 -0.62 q-1.6 0 -1.6 3.32 q0 1.64 0.46 2.38 t1.48 0.74 q0.52 0 1.12 -0.22 t1.24 -0.7 q0.32 0.2 0.63 0.65 t0.39 0.85 q-0.68 0.68 -1.67 1.09 t-2.07 0.41 q-2.1 0 -3.18 -1.43 t-1.08 -3.93 q0 -1.28 0.35 -2.24 t0.95 -1.6 t1.37 -0.96 t1.61 -0.32 q0.88 0 1.59 0.25 t1.2 0.68 t0.76 1.01 t0.27 1.22 t-0.33 0.99 t-0.99 0.35 q-0.6 0 -1.04 -0.1 z M69.24 17.32 l0 4.36 q0 1.28 0.42 1.9 q-0.64 0.56 -1.54 0.56 q-0.86 0 -1.18 -0.39 t-0.32 -1.23 l0 -4.66 q0 -0.9 -0.22 -1.26 t-0.82 -0.36 q-1.06 0 -1.98 0.96 l0 6.8 q-0.3 0.06 -0.61 0.08 t-0.65 0.02 q-0.32 0 -0.64 -0.02 t-0.64 -0.08 l0 -14.58 l0.12 -0.14 l1.02 0 q0.78 0 1.09 0.36 t0.31 1.26 l0 4.22 q1.4 -1.22 2.82 -1.22 q1.44 0 2.13 0.93 t0.69 2.49 z M79.46 19.88 l-5.52 0 q0.06 1.1 0.51 1.73 t1.57 0.63 q1.16 0 2.66 -0.68 q0.58 0.6 0.74 1.58 q-1.6 1.14 -3.84 1.14 q-2.12 0 -3.21 -1.31 t-1.09 -3.89 q0 -1.2 0.28 -2.17 t0.82 -1.66 t1.32 -1.07 t1.78 -0.38 q1.02 0 1.8 0.31 t1.32 0.88 t0.81 1.35 t0.27 1.7 q0 0.5 -0.06 0.95 t-0.16 0.89 z M75.6 15.68 q-1.56 0 -1.68 2.36 l3.32 0 l0 -0.24 q0 -0.96 -0.4 -1.54 t-1.24 -0.58 z M87.26 17.86 q0 -1.62 -1.04 -1.62 q-0.86 0.04 -1.74 0.94 l0 6.82 q-0.6 0.1 -1.3 0.1 t-1.3 -0.1 l0 -9.9 l0.12 -0.14 l0.98 0 q1.18 0 1.44 1.24 q1.4 -1.3 2.78 -1.3 q1.64 0 2.32 1.44 q1.54 -1.44 3.12 -1.44 q1.28 0 1.95 0.87 t0.67 2.27 l0 4.64 q0 1.28 0.42 1.9 q-0.7 0.56 -1.55 0.56 t-1.17 -0.4 t-0.32 -1.22 l0 -4.68 q0 -1.6 -1.06 -1.6 q-0.8 0 -1.72 0.96 l0 6.8 q-0.6 0.1 -1.3 0.1 t-1.3 -0.1 l0 -6.14 z M106.02000000000001 22.8 q-0.1 0.36 -0.36 0.76 t-0.52 0.6 q-1.3 -0.16 -1.9 -1.14 q-1.3 1.26 -2.84 1.26 q-0.78 0 -1.37 -0.25 t-0.98 -0.67 t-0.58 -0.96 t-0.19 -1.12 q0 -0.84 0.29 -1.47 t0.82 -1.05 t1.24 -0.64 t1.55 -0.22 q1.08 0 1.68 0.06 l0 -0.54 q0 -1.52 -1.48 -1.52 q-1 0 -3.04 0.7 q-0.56 -0.62 -0.68 -1.86 q2.12 -0.9 4.38 -0.9 q1.5 0 2.46 0.84 t0.96 2.54 l0 4.1 q0 1.06 0.56 1.48 z M100.98 22.3 q1 0 1.88 -0.88 l0 -1.74 q-0.32 -0.02 -0.62 -0.04 t-0.58 -0.02 q-0.88 0 -1.34 0.33 t-0.46 1.09 q0 0.6 0.3 0.93 t0.82 0.33 z  M115.46000000000001 20.58 l-0.02 1.24 l1.4 -0.04 l4.9 0 q0 0.64 -0.06 0.98 q-0.22 1.28 -1.72 1.28 l-5.62 0 q-0.72 0 -1.13 -0.43 t-0.41 -1.17 l0 -11.96 l0.14 -0.14 l8.34 0 q0.1 0.5 0.1 1.07 t-0.22 1.19 l-5.72 0 l0.02 1.38 l0 2.06 l1.3 -0.02 l3.38 0 q0.16 0.46 0.16 1.1 t-0.16 1.1 l-4.68 0 l0 2.36 z M129.10000000000002 14.08 q0.42 -0.12 1.04 -0.12 t1.3 0.18 l0.06 0.2 l-2.82 4.38 l3.2 4.86 q-0.88 0.58 -1.76 0.58 t-1.4 -0.78 l-1.64 -2.5 l-1.86 3.12 q-0.38 0.12 -1.14 0.12 t-1.28 -0.22 l-0.08 -0.16 l3.1 -4.82 l-2.86 -4.44 q0.84 -0.6 1.78 -0.6 q0.48 0 0.76 0.19 t0.56 0.63 l1.38 2.1 z M137.98000000000002 24.18 q-1.04 0 -2.06 -0.54 l0 3.06 q0 0.9 -0.32 1.26 t-1.1 0.36 l-1.02 0 l-0.12 -0.14 l0 -14.08 l0.12 -0.14 l0.74 0 q1.06 0 1.48 0.98 q1.14 -1.14 2.76 -1.14 q1.64 0 2.54 1.39 t0.9 3.81 q0 1.2 -0.31 2.16 t-0.84 1.63 t-1.24 1.03 t-1.53 0.36 z M137.74 15.92 q-1.08 0 -1.82 1.04 l0 4.64 q0.88 0.58 1.6 0.58 q0.84 0 1.28 -0.85 t0.44 -2.39 q0 -1.56 -0.42 -2.29 t-1.08 -0.73 z M147.40000000000003 22.08 l0.62 0 q0.22 0.56 0.22 1.08 t-0.06 0.76 q-1.22 0.18 -1.94 0.18 q-1.16 0 -1.7 -0.59 t-0.54 -1.85 l0 -12.24 l0.14 -0.14 l1 0 q0.78 0 1.1 0.37 t0.32 1.25 l0 10.26 q0 0.92 0.84 0.92 z M157.00000000000003 14.92 q1.42 1.42 1.42 4.12 q0 1.2 -0.3 2.17 t-0.87 1.65 t-1.41 1.05 t-1.9 0.37 t-1.89 -0.37 t-1.4 -1.05 t-0.87 -1.65 t-0.3 -2.17 q0 -2.42 1.16 -3.83 t3.3 -1.41 q1.88 0 3.06 1.12 z M153.94000000000003 15.76 q-1.78 0 -1.78 3.28 q0 3.26 1.78 3.26 q1.8 0 1.8 -3.26 q0 -3.28 -1.8 -3.28 z M159.96000000000004 15.28 q0.08 -0.36 0.33 -0.76 t0.51 -0.6 q1.62 0.2 2.22 1.8 q0.76 -1.78 2.54 -1.78 q0.66 0 1.2 0.14 q0 1.4 -0.64 2.44 q-0.3 -0.1 -0.92 -0.14 q-1.16 0 -1.88 1.24 l0 6.38 q-0.6 0.1 -1.29 0.1 t-1.33 -0.1 l0 -6.66 q0 -1.42 -0.74 -2.06 z M175.74 19.88 l-5.52 0 q0.06 1.1 0.51 1.73 t1.57 0.63 q1.16 0 2.66 -0.68 q0.58 0.6 0.74 1.58 q-1.6 1.14 -3.84 1.14 q-2.12 0 -3.21 -1.31 t-1.09 -3.89 q0 -1.2 0.28 -2.17 t0.82 -1.66 t1.32 -1.07 t1.78 -0.38 q1.02 0 1.8 0.31 t1.32 0.88 t0.81 1.35 t0.27 1.7 q0 0.5 -0.06 0.95 t-0.16 0.89 z M171.88000000000002 15.68 q-1.56 0 -1.68 2.36 l3.32 0 l0 -0.24 q0 -0.96 -0.4 -1.54 t-1.24 -0.58 z M177.58000000000004 15.28 q0.08 -0.36 0.33 -0.76 t0.51 -0.6 q1.62 0.2 2.22 1.8 q0.76 -1.78 2.54 -1.78 q0.66 0 1.2 0.14 q0 1.4 -0.64 2.44 q-0.3 -0.1 -0.92 -0.14 q-1.16 0 -1.88 1.24 l0 6.38 q-0.6 0.1 -1.29 0.1 t-1.33 -0.1 l0 -6.66 q0 -1.42 -0.74 -2.06 z"/></g><g id="slogan_text" rel="mainfill" name="slogan_text" feature="slogan_text" xmlns:name="sloganText_mainfill" groupName="slogan_text" fill="#823331" transform="translate(72.65756747540148, 47.782621579303004) scale(0.7217379108999905)"><path d="M1.86 23.52 l0 -4.2 l0 -0.2 l0 -0.2 l0 -8.44 c0 -0.26 0.22 -0.48 0.48 -0.48 c0.28 0 0.5 0.22 0.5 0.48 l0 5.64 c0.86 -1.16 2.22 -1.92 3.76 -1.92 c2.64 0 4.74 2.2 4.74 4.92 c0 2.68 -2.1 4.88 -4.74 4.88 c-1.54 0 -2.9 -0.74 -3.76 -1.9 l0 1.42 c0 0.26 -0.22 0.48 -0.5 0.48 c-0.26 0 -0.48 -0.22 -0.48 -0.48 z M2.84 18.96 l0 0.16 c0 2.16 1.7 3.9 3.76 3.9 c2.08 0 3.76 -1.74 3.76 -3.9 c0 -2.18 -1.68 -3.94 -3.76 -3.94 c-2.02 0 -3.68 1.68 -3.76 3.78 z M14.240000000000002 19.98 l0 -5.32 c0 -0.26 0.22 -0.46 0.46 -0.46 c0.28 0 0.5 0.2 0.5 0.46 l0 5.32 c0 1.68 1.34 3.02 3 3.02 c1.68 0 3.02 -1.34 3.04 -3.02 l0 -5.32 c0 -0.08 0.02 -0.18 0.08 -0.24 c0 -0.02 0.02 -0.04 0.02 -0.06 c0.02 0 0.02 -0.02 0.04 -0.02 c0.04 -0.06 0.12 -0.1 0.18 -0.12 l0.04 0 c0.02 0 0.04 -0.02 0.06 -0.02 l0.06 0 l0.06 0 c0.08 0.02 0.16 0.06 0.24 0.1 c0.04 0.04 0.1 0.1 0.12 0.16 c0.04 0.06 0.06 0.14 0.06 0.2 l0 5.32 l0 0.18 l0 3.06 c0 2.56 -2.08 4.6 -4.66 4.6 c-0.72 0 -1.4 -0.18 -2.02 -0.46 c-0.22 -0.14 -0.32 -0.42 -0.2 -0.64 c0.12 -0.24 0.38 -0.3 0.62 -0.24 c0.48 0.24 1.04 0.38 1.6 0.38 c2.04 0 3.68 -1.62 3.7 -3.64 l0 -0.64 c-0.74 0.84 -1.82 1.4 -3.04 1.4 c-2.18 -0.02 -3.96 -1.8 -3.96 -4 z  M36.660000000000004 23.52 l0 -12.54 l-4.22 0 c-0.26 0 -0.48 -0.22 -0.48 -0.5 c0 -0.26 0.22 -0.48 0.48 -0.48 l9.4 0 c0.26 0 0.48 0.22 0.48 0.48 c0 0.28 -0.22 0.5 -0.48 0.5 l-4.22 0 l0 12.54 c0 0.26 -0.22 0.48 -0.48 0.48 s-0.48 -0.22 -0.48 -0.48 z M45.800000000000004 23.52 l0 -8.84 c0 -0.28 0.22 -0.48 0.48 -0.48 l0 0 c0.28 0 0.5 0.2 0.5 0.48 l0 0 l0 8.84 c0 0.26 -0.22 0.48 -0.5 0.48 l0 0 c-0.26 0 -0.48 -0.22 -0.48 -0.48 l0 0 z M45.800000000000004 11.94 l0 -0.46 c0 -0.26 0.22 -0.48 0.48 -0.48 l0 0 c0.28 0 0.5 0.22 0.5 0.48 l0 0 l0 0.46 c0 0.28 -0.22 0.52 -0.5 0.52 l0 0 c-0.26 0 -0.48 -0.24 -0.48 -0.52 l0 0 z M65.42 23.54 l0 -5.34 c-0.04 -1.66 -1.36 -3.04 -3.04 -3.04 c-1.66 0 -3.02 1.38 -3.02 3.04 l0 5.34 l0 0.06 c0 0.02 -0.02 0.04 -0.02 0.04 l0 0.04 c-0.04 0.12 -0.14 0.2 -0.24 0.26 c-0.08 0.04 -0.16 0.06 -0.24 0.06 l-0.06 0 l-0.04 0 c-0.02 0 -0.04 -0.02 -0.04 -0.02 c-0.04 0 -0.08 -0.04 -0.12 -0.06 c-0.02 0 -0.04 -0.02 -0.06 -0.04 l-0.06 -0.06 c-0.02 -0.02 -0.02 -0.04 -0.04 -0.04 c0 -0.02 0 -0.02 -0.02 -0.04 c0 0 0 -0.02 -0.02 -0.04 c0 -0.02 0 -0.04 -0.02 -0.06 l0 -0.06 l0 -0.04 l0 -5.34 c0 -1.66 -1.34 -3.04 -3.02 -3.04 s-3.02 1.38 -3.02 3.04 l0 5.34 c0 0.16 -0.08 0.3 -0.22 0.38 c-0.02 0.02 -0.08 0.06 -0.12 0.06 c-0.02 0.02 -0.04 0.02 -0.08 0.02 l-0.06 0 l-0.06 0 c-0.18 -0.02 -0.34 -0.18 -0.4 -0.36 l0 -0.1 l0 -5.34 l0 -0.16 l0 -3.36 c0 -0.26 0.22 -0.46 0.46 -0.46 c0.28 0 0.48 0.2 0.48 0.46 l0 0.94 c0.72 -0.86 1.8 -1.4 3.02 -1.4 c1.52 0 2.82 0.84 3.5 2.08 c0.7 -1.24 2.02 -2.08 3.52 -2.08 c2.2 0 3.98 1.78 3.98 3.98 l0 5.34 c0 0.24 -0.2 0.46 -0.48 0.46 c-0.26 0 -0.46 -0.22 -0.46 -0.46 z  M85.54 23.68 l-1.24 -3.3 l-6.38 0 l-1.24 3.3 c-0.08 0.2 -0.26 0.32 -0.46 0.32 c-0.04 0 -0.12 -0.02 -0.18 -0.02 c-0.24 -0.1 -0.38 -0.4 -0.28 -0.64 l4.86 -12.98 c0.08 -0.18 0.28 -0.3 0.48 -0.3 c0.22 0 0.42 0.12 0.48 0.3 l4.86 12.98 c0.1 0.24 -0.02 0.54 -0.26 0.64 c-0.08 0 -0.12 0.02 -0.18 0.02 c-0.18 0 -0.38 -0.12 -0.46 -0.32 z M81.12 11.88 l-2.84 7.52 l5.66 0 z M89.34 23.52 l0 -4.2 l0 -0.2 l0 -0.2 l0 -8.44 c0 -0.26 0.22 -0.48 0.48 -0.48 c0.28 0 0.5 0.22 0.5 0.48 l0 5.64 c0.86 -1.16 2.22 -1.92 3.76 -1.92 c2.64 0 4.74 2.2 4.74 4.92 c0 2.68 -2.1 4.88 -4.74 4.88 c-1.54 0 -2.9 -0.74 -3.76 -1.9 l0 1.42 c0 0.26 -0.22 0.48 -0.5 0.48 c-0.26 0 -0.48 -0.22 -0.48 -0.48 z M90.32000000000001 18.96 l0 0.16 c0 2.16 1.7 3.9 3.76 3.9 c2.08 0 3.76 -1.74 3.76 -3.9 c0 -2.18 -1.68 -3.94 -3.76 -3.94 c-2.02 0 -3.68 1.68 -3.76 3.78 z M106.60000000000001 24 c-2.64 0 -4.76 -2.2 -4.76 -4.88 c0 -2.72 2.12 -4.92 4.76 -4.92 c2.52 0 4.52 2 4.72 4.56 l0 0.02 l0 0.06 c0 0.26 -0.22 0.44 -0.48 0.44 l-8.04 0 c0.1 2.14 1.78 3.76 3.8 3.76 c1.3 0 2.5 -0.68 3.16 -1.78 c0.14 -0.24 0.44 -0.28 0.64 -0.16 c0.22 0.16 0.3 0.44 0.16 0.68 c-0.84 1.34 -2.3 2.22 -3.96 2.22 z M106.60000000000001 15.16 c-1.84 0 -3.38 1.32 -3.74 3.18 l7.42 0 c-0.32 -1.84 -1.88 -3.18 -3.68 -3.18 z M114.86000000000001 23.52 l0 -13.04 c0 -0.26 0.22 -0.48 0.48 -0.48 l0 0 c0.28 0 0.5 0.22 0.5 0.48 l0 0 l0 13.04 c0 0.26 -0.22 0.48 -0.5 0.48 l0 0 c-0.26 0 -0.48 -0.22 -0.48 -0.48 l0 0 z M119.84000000000002 23.52 l0 -13.04 c0 -0.26 0.22 -0.48 0.48 -0.48 l0 0 c0.28 0 0.5 0.22 0.5 0.48 l0 0 l0 13.04 c0 0.26 -0.22 0.48 -0.5 0.48 l0 0 c-0.26 0 -0.48 -0.22 -0.48 -0.48 l0 0 z"/></g><g id="SvgjsG6387" rel="mainfill" name="symbol" feature="symbol" xmlns:name="symbol_mainfill" fill="#695252" transform="translate(8.327990231797319, 11.233645005811141) scale(0.8831774970944299)"><title>12-Available</title><g data-name="12-Available"><path d="M41.9,42c-.21,1.19-.86,3-2.9,3H28v2H39c4,0,5-3.92,5-6a1,1,0,0,0-1-1H18a1,1,0,0,0-.71.29l-12,12,1.41,1.41L18.41,42Z"/><path d="M54.29,33.29l-9,9,1.41,1.41,8.21-8.21a4.26,4.26,0,0,1-.63,5.8L42.59,53H22a1,1,0,0,0-.71.29l-7,7,1.41,1.41L22.41,55H43a1,1,0,0,0,.71-.29l12-12c3.72-3.72,1.63-7.79,0-9.41A1,1,0,0,0,54.29,33.29Z"/><rect x="24" y="45" width="2" height="2"/><path d="M13,14a1,1,0,0,0-1,1v6.18a3,3,0,1,0,2,0V16h8v7c0,2.56,4.49,3.82,9,4v4H30a1,1,0,0,0-1,1v1H20v2h9v1a1,1,0,0,0,1,1h4a1,1,0,0,0,1-1V35h9V33H35V32a1,1,0,0,0-1-1H33V27c4.51-.16,9-1.42,9-4V16h3v5a1,1,0,0,0,1,1h8V20H47V16h4a1,1,0,0,0,1-1V8.82a3,3,0,1,0-2,0V14H42V6c0-2.75-5.18-4-10-4S22,3.25,22,6v8H19V9a1,1,0,0,0-1-1H10v2h7v4Zm0,11a1,1,0,1,1,1-1A1,1,0,0,1,13,25ZM51,5a1,1,0,1,1-1,1A1,1,0,0,1,51,5ZM33,35H31V33h2ZM32,4c5.25,0,8,1.49,8,2s-2.75,2-8,2-8-1.49-8-2S26.75,4,32,4ZM24,8.52A19,19,0,0,0,32,10a19,19,0,0,0,8-1.48V14c0,.51-2.75,2-8,2s-8-1.49-8-2Zm0,8A19,19,0,0,0,32,18a19,19,0,0,0,8-1.48V23c0,.51-2.75,2-8,2s-8-1.49-8-2Z"/><rect x="56" y="20" width="2" height="2"/><rect x="6" y="8" width="2" height="2"/></g></g>
			</g>
		</svg>
	